<svg width="162" height="25" viewBox="0 0 162 25" fill="none" xmlns="http://www.w3.org/2000/svg">
<path d="M3.71045 18.5914V5.0459H6.01827V10.7732H11.5842V5.0459H13.892V18.5914H11.5842V12.8186H6.01827V18.5914H3.71045Z" fill="#685DC5"/>
<path d="M16.0645 18.5914V17.8186L20.8611 5.0459H23.1237L27.9203 17.8186V18.5914H25.6578L24.4812 15.2277H19.4131L18.1913 18.5914H16.0645ZM20.0918 13.3186H23.8025L21.9924 8.13681L20.0918 13.3186Z" fill="#685DC5"/>
<path d="M30.0469 18.5914V5.0459H35.8391C38.4637 5.0459 39.9117 6.59135 39.9117 9.18226C39.9117 11.0004 39.0972 12.4095 37.5587 13.0914L40.0927 17.7732V18.5459H37.8302L35.0698 13.3641H32.4V18.5459H30.0469V18.5914ZM32.3548 11.4095H35.4319C36.8346 11.4095 37.5587 10.6823 37.5587 9.22772C37.5587 7.77317 36.8346 7.0459 35.4319 7.0459H32.3548V11.4095Z" fill="#685DC5"/>
<path d="M42.7627 18.5914V5.0459H48.4191C50.8174 5.0459 52.2655 6.27317 52.2655 8.68226C52.2655 10.0459 51.7224 11.0004 50.6364 11.5459C52.0392 12.0459 52.7632 13.1368 52.7632 14.8186C52.7632 17.2732 51.3604 18.5914 48.9169 18.5914H42.7627ZM45.0705 10.8641H48.0571C49.3241 10.8641 49.9576 10.2277 49.9576 8.95499C49.9576 7.68226 49.3241 7.09135 48.0571 7.09135H45.0705V10.8641ZM45.0705 16.5459H48.5549C49.8671 16.5459 50.5007 15.9095 50.5007 14.6823C50.5007 13.4095 49.8671 12.7732 48.5549 12.7732H45.0705V16.5459Z" fill="#685DC5"/>
<path d="M55.1162 9.63707C55.1162 6.59162 57.1525 4.77344 60.4106 4.77344C63.6687 4.77344 65.705 6.59162 65.705 9.63707V14.0007C65.705 17.0462 63.6687 18.8643 60.4106 18.8643C57.1525 18.8643 55.1162 17.0462 55.1162 14.0007V9.63707ZM63.3972 9.50071C63.3972 7.95525 62.3564 6.86435 60.4106 6.86435C58.4648 6.86435 57.424 7.95525 57.424 9.50071V14.0916C57.424 15.6371 58.4648 16.728 60.4106 16.728C62.3564 16.728 63.3972 15.6371 63.3972 14.0916V9.50071Z" fill="#685DC5"/>
<path d="M76.4747 5.0459H78.7825V14.1823C78.7825 15.6368 78.33 16.8186 77.3797 17.6368C76.4747 18.455 75.2077 18.8641 73.6691 18.8641C72.1306 18.8641 70.8635 18.455 69.9133 17.6368C69.0082 16.8186 68.5557 15.6368 68.5557 14.1823V5.0459H70.8635V14.2732C70.8635 15.6823 71.8591 16.7277 73.6691 16.7277C75.4792 16.7277 76.4747 15.6823 76.4747 14.2732V5.0459Z" fill="#685DC5"/>
<path d="M82.0859 18.5914V5.0459H87.878C90.5026 5.0459 91.9507 6.59135 91.9507 9.18226C91.9507 11.0004 91.1361 12.4095 89.5976 13.0914L92.1317 17.7732V18.5459H89.8691L87.1088 13.3641H84.4389V18.5459H82.0859V18.5914ZM84.3937 11.4095H87.4708C88.8736 11.4095 89.5976 10.6823 89.5976 9.22772C89.5976 7.77317 88.8736 7.0459 87.4708 7.0459H84.3937V11.4095Z" fill="#685DC5"/>
<path d="M100.594 17.6821C99.5984 16.8639 99.1006 15.7275 99.1006 14.1821H101.408C101.408 14.8184 101.589 15.3184 101.906 15.7275C102.585 16.5003 103.445 16.7275 104.486 16.7275C106.115 16.7275 107.02 16.0003 107.02 14.9548C107.02 14.4548 106.793 14.0912 106.386 13.8639C105.979 13.5912 105.21 13.2275 104.078 12.8184L103.897 12.773L103.58 12.6366C102.132 12.0912 101.046 11.5457 100.413 11.0003C99.7794 10.4548 99.4626 9.68209 99.4626 8.68209C99.4626 7.50027 99.8699 6.54572 100.73 5.81845C101.589 5.09118 102.811 4.72754 104.304 4.72754C107.336 4.72754 109.327 6.18208 109.327 9.27299H107.02C107.02 7.59118 105.843 6.81845 104.304 6.81845C102.766 6.81845 101.816 7.50027 101.816 8.45481C101.816 8.95481 101.997 9.3639 102.404 9.63663C102.811 9.90936 103.58 10.2275 104.712 10.6366L104.983 10.7275C105.707 11.0003 106.296 11.2275 106.703 11.4094C107.155 11.5912 107.608 11.8639 108.06 12.1821C109.011 12.8184 109.418 13.6821 109.418 14.8184C109.418 17.1821 107.608 18.8185 104.304 18.8185C102.856 18.8639 101.635 18.4548 100.594 17.6821Z" fill="#685DC5"/>
<path d="M112.359 18.5914V5.0459H118.197C120.55 5.0459 121.998 6.63681 121.998 9.18226C121.998 11.7277 120.595 13.3186 118.197 13.3186H114.667V18.5459H112.359V18.5914ZM114.667 11.3186H117.789C118.83 11.3186 119.645 10.5459 119.645 9.18226C119.645 7.81863 118.875 7.0459 117.789 7.0459H114.667V11.3186Z" fill="#685DC5"/>
<path d="M122.269 18.5914V17.8186L127.066 5.0459H129.328L134.125 17.8186V18.5914H131.863L130.686 15.2277H125.618L124.396 18.5914H122.269ZM126.297 13.3186H130.007L128.197 8.13681L126.297 13.3186Z" fill="#685DC5"/>
<path d="M135.89 14.0007V9.63707C135.89 6.54616 137.791 4.77344 141.139 4.77344C142.542 4.77344 143.718 5.13707 144.669 5.95526C145.619 6.72798 146.072 7.9098 146.072 9.45526V9.63707H143.764V9.45526C143.764 8.63707 143.492 8.00071 142.949 7.54616C142.406 7.09162 141.773 6.9098 141.094 6.9098C139.148 6.9098 138.198 7.86435 138.198 9.50071V14.1825C138.198 15.8189 139.148 16.7734 141.094 16.7734C141.773 16.7734 142.406 16.5462 142.949 16.1371C143.492 15.6825 143.764 15.0462 143.764 14.228V14.0462H146.072V14.228C146.072 15.7734 145.574 16.9553 144.669 17.728C143.718 18.5007 142.542 18.9098 141.139 18.9098C137.791 18.8643 135.89 17.0916 135.89 14.0007Z" fill="#685DC5"/>
<path d="M149.013 18.5914V5.0459H157.656V7.09135H151.321V10.8641H156.751V12.8186H151.321V16.5914H157.656V18.6368H149.013V18.5914Z" fill="#685DC5"/>
<path d="M96.6117 18.5909C96.6117 18.9091 96.3402 19.1818 96.0234 19.1818C95.7066 19.1818 95.4351 18.9091 95.4351 18.5909C95.4351 18.2727 95.7066 18 96.0234 18C96.3854 18 96.6117 18.2727 96.6117 18.5909Z" fill="#685DC5"/>
</svg>
